<svg width="1058" height="794" xmlns="http://www.w3.org/2000/svg" xmlns:xlink="http://www.w3.org/1999/xlink" overflow="hidden"><defs><clipPath id="clip0"><path d="M0 0 1058 0 1058 794 0 794Z" fill-rule="evenodd" clip-rule="evenodd"/></clipPath></defs><g clip-path="url(#clip0)"><rect x="0" y="0" width="1058" height="793.417" fill="#FFFFFF" transform="scale(1 1.00074)"/><path d="M0 278.295C-3.66026e-14 124.597 128.718-3.54307e-14 287.5-7.08614e-14 446.282-1.41723e-13 575 124.597 575 278.295 575 431.994 446.282 556.591 287.5 556.591 128.718 556.591-1.83013e-13 431.994 0 278.295Z" stroke="#ADC5E7" stroke-width="71.9773" stroke-linejoin="round" stroke-miterlimit="10" fill="none" fill-rule="evenodd" transform="matrix(1 0 -0 1.00074 250 182)"/><rect x="0" y="0" width="192" height="47.9647" stroke="#3465A4" stroke-width="0.999685" stroke-linejoin="round" stroke-miterlimit="10" fill="#729FCF" transform="matrix(1 0 -0 1.00074 125.5 451.5)"/><text font-family="Arial,Arial_MSFontService,sans-serif" font-weight="400" font-size="24" transform="matrix(1 0 0 1.00074 139.428 484)">Data Collection</text><rect x="0" y="0" width="182" height="47.9647" stroke="#3465A4" stroke-width="0.999685" stroke-linejoin="round" stroke-miterlimit="10" fill="#729FCF" transform="matrix(1 0 -0 1.00074 250.5 221.5)"/><text font-family="Arial,Arial_MSFontService,sans-serif" font-weight="400" font-size="24" transform="matrix(1 0 0 1.00074 264.709 254)">Data Cleaning</text><rect x="0" y="0" width="182" height="47.9647" stroke="#3465A4" stroke-width="0.999685" stroke-linejoin="round" stroke-miterlimit="10" fill="#729FCF" transform="matrix(1 0 -0 1.00074 605.5 211.5)"/><text font-family="Arial,Arial_MSFontService,sans-serif" font-weight="400" font-size="24" transform="matrix(1 0 0 1.00074 628.677 244)">Visualization</text><rect x="0" y="0" width="182" height="47.9647" stroke="#3465A4" stroke-width="0.999685" stroke-linejoin="round" stroke-miterlimit="10" fill="#729FCF" transform="matrix(1 0 -0 1.00074 720.5 403.5)"/><text font-family="Arial,Arial_MSFontService,sans-serif" font-weight="400" font-size="24" transform="matrix(1 0 0 1.00074 732.301 436)">Model Building</text><rect x="0" y="0" width="317" height="47.9647" stroke="#3465A4" stroke-width="0.999685" stroke-linejoin="round" stroke-miterlimit="10" fill="#729FCF" transform="matrix(1 0 -0 1.00074 182.5 653.5)"/><text font-family="Arial,Arial_MSFontService,sans-serif" font-weight="400" font-size="24" transform="matrix(1 0 0 1.00074 205.619 686)">Integration &amp; Deployment</text><rect x="0" y="0" width="230" height="46.9655" stroke="#3465A4" stroke-width="0.999685" stroke-linejoin="round" stroke-miterlimit="10" fill="#729FCF" transform="matrix(1 0 -0 1.00074 643.5 644.5)"/><text font-family="Arial,Arial_MSFontService,sans-serif" font-weight="400" font-size="24" transform="matrix(1 0 0 1.00074 666.353 677)">Model Evaluation</text><path d="M30.1093 76.5583 30.147 32.3321 0 32.3321 47.8584 0 95.7544 32.2945 65.6451 32.2945 65.6828 76.5206 30.1093 76.5583" stroke="#3465A4" stroke-width="0.999803" stroke-linejoin="round" stroke-miterlimit="10" fill="#729FCF" fill-rule="evenodd" transform="matrix(0.916325 0.400436 -0.400636 0.916783 243.798 300.54)"/><path d="M32.7433 76.5493 32.7057 36.28 0 36.3176 47.7774 0 95.7432 36.1671 63.0375 36.2047 63.0752 76.474 32.7433 76.5493" stroke="#3465A4" stroke-width="0.999685" stroke-linejoin="round" stroke-miterlimit="10" fill="#729FCF" fill-rule="evenodd" transform="matrix(-0.0036652 1.00073 -0.999993 -0.0036625 566.208 134.446)"/><path d="M30.2189 76.5494 30.1435 38.3312 0 38.4065 47.8152 0 95.7434 38.2559 65.5999 38.2935 65.6752 76.5118 30.2189 76.5494" stroke="#3465A4" stroke-width="0.999688" stroke-linejoin="round" stroke-miterlimit="10" fill="#729FCF" fill-rule="evenodd" transform="matrix(-0.0573897 -0.999083 0.998354 -0.0573478 514.058 787.307)"/><path d="M30.1493 76.564 30.1493 32.3346 0 32.2969 47.862 0 95.7617 32.2593 65.6878 32.2593 65.7254 76.5264 30.1493 76.564" stroke="#3465A4" stroke-width="0.999878" stroke-linejoin="round" stroke-miterlimit="10" fill="#729FCF" fill-rule="evenodd" transform="matrix(-0.858526 0.51277 -0.512949 -0.858825 861.208 348.059)"/><path d="M30.1109 76.5623 30.1109 32.2744 0 32.2744 47.8609 0 95.7595 32.3121 65.6486 32.2744 65.6486 76.5623 30.1109 76.5623" stroke="#3465A4" stroke-width="0.999856" stroke-linejoin="round" stroke-miterlimit="10" fill="#729FCF" fill-rule="evenodd" transform="matrix(0.876157 -0.482026 0.482215 0.876502 214.705 574.389)"/><path d="M30.1058 76.5492 30.1058 32.3066 0 32.3066 47.8527 0 95.7432 32.3066 65.6374 32.3066 65.6374 76.5492 30.1058 76.5492" stroke="#3465A4" stroke-width="0.999685" stroke-linejoin="round" stroke-miterlimit="10" fill="#729FCF" fill-rule="evenodd" transform="matrix(-0.00837745 1.0007 -0.999965 -0.0083713 110.501 429.82)"/><path d="M30.1079 76.5547 30.1079 32.3089 0 32.2712 47.8185 0 95.75 32.3089 65.6421 32.2712 65.6421 76.5547 30.1079 76.5547" stroke="#3465A4" stroke-width="0.999757" stroke-linejoin="round" stroke-miterlimit="10" fill="#729FCF" fill-rule="evenodd" transform="matrix(-0.949959 -0.312376 0.312561 -0.950521 839.67 611.823)"/></g></svg>